<?xml version="1.0" encoding="UTF-8"?>
<svg width="70px" height="71px" viewBox="0 0 70 71" version="1.1" xmlns="http://www.w3.org/2000/svg" xmlns:xlink="http://www.w3.org/1999/xlink">
    <!-- Generator: Sketch 59 (86127) - https://sketch.com -->
    <title>social/dribbble copy</title>
    <desc>Created with Sketch.</desc>
    <defs>
        <filter x="-2.9%" y="-4.6%" width="105.8%" height="109.2%" filterUnits="objectBoundingBox" id="filter-1">
            <feOffset dx="0" dy="2" in="SourceAlpha" result="shadowOffsetOuter1"></feOffset>
            <feGaussianBlur stdDeviation="7.5" in="shadowOffsetOuter1" result="shadowBlurOuter1"></feGaussianBlur>
            <feColorMatrix values="0 0 0 0 0   0 0 0 0 0   0 0 0 0 0  0 0 0 0.1 0" type="matrix" in="shadowBlurOuter1" result="shadowMatrixOuter1"></feColorMatrix>
            <feMerge>
                <feMergeNode in="shadowMatrixOuter1"></feMergeNode>
                <feMergeNode in="SourceGraphic"></feMergeNode>
            </feMerge>
        </filter>
    </defs>
    <g id="Design" stroke="none" stroke-width="1" fill="none" fill-rule="evenodd">
        <g id="Profile-card-khaoula" transform="translate(-502.000000, -796.000000)" fill="#2D354C">
            <g id="card-copy" filter="url(#filter-1)" transform="translate(145.000000, 147.000000)">
                <g id="social-media" transform="translate(368.076285, 658.524804)">
                    <g id="social/dribbble">
                        <path d="M24,3.69230769 C12.7843449,3.69230769 3.69230769,12.7843449 3.69230769,24 C3.69230769,35.2156551 12.7843449,44.3076923 24,44.3076923 C35.2156551,44.3076923 44.3076923,35.2156551 44.3076923,24 C44.3076923,12.7843449 35.2155596,3.69230769 24,3.69230769 Z M40.4228928,22.5396546 C38.2672813,22.4530329 34.1884185,22.4508363 29.5534382,23.2612797 C29.1347505,22.2574415 28.7070854,21.2947653 28.2773193,20.3762118 C28.5457799,20.2509111 28.8120439,20.1235093 29.0732462,19.9919053 C32.2567628,18.3875405 34.9004932,16.3120565 36.9608877,13.8067109 C38.9473623,16.3222754 40.1435448,19.3357002 40.4228928,22.5396546 Z M34.2494452,11.083999 C32.3262895,13.5337616 29.7628776,15.5005625 26.5783104,16.9705538 C26.2200764,16.2955344 25.8669997,15.6534638 25.5243328,15.0507406 C23.7714599,11.9679803 22.0989055,9.51449303 20.847713,7.81242806 C21.8756182,7.61454462 22.9298823,7.51245128 24,7.51245128 C27.7691447,7.51245128 31.3445126,8.76966054 34.2494452,11.083999 Z M12.3414948,12.3414948 C13.717033,10.9659566 15.2930332,9.86394067 17.003407,9.06151951 C18.2041737,10.6209021 20.1817665,13.371883 22.2538124,17.0276649 C22.4906613,17.4455886 22.7330494,17.8845231 22.9783981,18.3394067 C21.3862578,18.8316322 19.676648,19.2278766 17.8492823,19.5254658 C13.7496952,20.1930359 10.0550433,20.1727891 7.98003686,20.0778586 C8.68552187,17.1734989 10.1742318,14.5088533 12.3414948,12.3414948 Z M7.51245128,24 C7.51245128,23.960939 7.51359732,23.9219736 7.51388383,23.8830081 C8.21841382,23.920541 9.11509702,23.9512932 10.1603838,23.9512932 C12.3688088,23.9512932 15.2408883,23.813768 18.3648107,23.3119921 C20.6183134,22.949938 22.7422177,22.4389938 24.7190465,21.7846987 C25.0684942,22.5250426 25.4168913,23.2966161 25.7602267,24.0972227 C23.2280445,24.7783543 20.9032961,25.6694027 18.8182617,26.7611998 C15.4350471,28.5327914 12.6791955,30.8347144 10.60438,33.6168295 C8.59660803,30.8327088 7.51245128,27.4999201 7.51245128,24 Z M13.2416161,36.4952122 C16.1427287,32.246353 20.8195395,29.2864102 27.1757809,27.6714445 C28.4505628,31.1766172 29.5413093,35.0961801 30.1702004,39.2978605 C28.2352022,40.0780293 26.1492128,40.4875487 24,40.4875487 C20.00795,40.4875487 16.2324065,39.0782977 13.2416161,36.4952122 Z M35.6584097,35.6584097 C35.0498608,36.2669586 34.401678,36.8211659 33.7204509,37.3205542 C33.0681613,33.5880829 32.087053,30.0876853 30.95715,26.900635 C34.961711,26.2726034 38.4850295,26.288266 40.3198444,26.3617083 C39.8197876,29.8695551 38.2086421,33.1082729 35.6584097,35.6584097 Z" id="Shape"></path>
                    </g>
                </g>
            </g>
        </g>
    </g>
</svg>