<?xml version="1.0" encoding="UTF-8"?>
<svg width="71px" height="71px" viewBox="0 0 71 71" version="1.1" xmlns="http://www.w3.org/2000/svg" xmlns:xlink="http://www.w3.org/1999/xlink">
    <!-- Generator: Sketch 59 (86127) - https://sketch.com -->
    <title>social/linkedin copy</title>
    <desc>Created with Sketch.</desc>
    <defs>
        <filter x="-2.9%" y="-4.6%" width="105.8%" height="109.2%" filterUnits="objectBoundingBox" id="filter-1">
            <feOffset dx="0" dy="2" in="SourceAlpha" result="shadowOffsetOuter1"></feOffset>
            <feGaussianBlur stdDeviation="7.5" in="shadowOffsetOuter1" result="shadowBlurOuter1"></feGaussianBlur>
            <feColorMatrix values="0 0 0 0 0   0 0 0 0 0   0 0 0 0 0  0 0 0 0.1 0" type="matrix" in="shadowBlurOuter1" result="shadowMatrixOuter1"></feColorMatrix>
            <feMerge>
                <feMergeNode in="shadowMatrixOuter1"></feMergeNode>
                <feMergeNode in="SourceGraphic"></feMergeNode>
            </feMerge>
        </filter>
    </defs>
    <g id="Design" stroke="none" stroke-width="1" fill="none" fill-rule="evenodd">
        <g id="Profile-card-khaoula" transform="translate(-622.000000, -796.000000)" fill="#2D354C">
            <g id="card-copy" filter="url(#filter-1)" transform="translate(145.000000, 147.000000)">
                <g id="social-media" transform="translate(368.076285, 658.524804)">
                    <g id="social/linkedin" transform="translate(120.149254, 0.000000)">
                        <path d="M40.6336615,3.69230769 L7.36630154,3.69230769 C5.33723077,3.69230769 3.69230769,5.33723077 3.69230769,7.36630154 L3.69230769,40.6336615 C3.69230769,42.6627692 5.33723077,44.3076923 7.36630154,44.3076923 L40.6336615,44.3076923 C42.6627692,44.3076923 44.3076923,42.6627692 44.3076923,40.6336615 L44.3076923,7.36630154 C44.3076923,5.33723077 42.6627692,3.69230769 40.6336615,3.69230769 Z M16.2604246,38.7624 C16.2604246,39.3528 15.7817723,39.8315077 15.1912431,39.8315077 L10.6399754,39.8315077 C10.0494646,39.8315077 9.57079385,39.3528 9.57079385,38.7624 L9.57079385,19.6836 C9.57079385,19.0930892 10.0494646,18.6144185 10.6399754,18.6144185 L15.1912431,18.6144185 C15.7817723,18.6144185 16.2604246,19.0930892 16.2604246,19.6836 L16.2604246,38.7624 Z M12.9156185,16.8159692 C10.5277108,16.8159692 8.59188923,14.8801477 8.59188923,12.49224 C8.59188923,10.1043323 10.5277108,8.16851077 12.9156185,8.16851077 C15.3035262,8.16851077 17.2393477,10.1043323 17.2393477,12.49224 C17.2393477,14.8801477 15.3036369,16.8159692 12.9156185,16.8159692 Z M40.0452952,38.8484308 C40.0452952,39.3913846 39.6049846,39.8315077 39.0622154,39.8315077 L34.1782154,39.8315077 C33.6354462,39.8315077 33.1953231,39.3913846 33.1953231,38.8484308 L33.1953231,29.8993846 C33.1953231,28.5644308 33.5868923,24.0494769 29.7064615,24.0494769 C26.6964923,24.0494769 26.0859692,27.1397538 25.9633846,28.5267692 L25.9633846,38.8484308 C25.9633846,39.3913846 25.5234462,39.8315077 24.9804923,39.8315077 L20.2569046,39.8315077 C19.7140062,39.8315077 19.2738277,39.3913846 19.2738277,38.8484308 L19.2738277,19.5974769 C19.2738277,19.0545969 19.7140062,18.6144185 20.2569046,18.6144185 L24.9804923,18.6144185 C25.5232615,18.6144185 25.9633846,19.0545969 25.9633846,19.5974769 L25.9633846,21.2619692 C27.0795692,19.5870646 28.7381538,18.2942769 32.2696615,18.2942769 C40.0899692,18.2942769 40.0452952,25.6004308 40.0452952,29.6147077 L40.0452952,38.8484308 Z" id="Shape"></path>
                    </g>
                </g>
            </g>
        </g>
    </g>
</svg>